#!OML:ASF E:/inclinewalkrobotboard/Project1/Captureday1/Session1/subject1.ASF
:FULLY-SPECIFIED
:DEGREES
176
root 0 0 0 2.8811486038160417 -4.288875166365753 2.1059581857662613
lowerback 11.801114503684163 1.1945984786556725 -0.05189329072632154
upperback -4.211172653271518 1.5416542963621507 -0.7917391838117235
thorax -11.083398673476562 0.7087209293705496 -1.1252323978664487
lowerneck -6.967245667968135 1.2797847586607982 4.2611871526316865
upperneck 19.081890628373273 2.684038833426542 -8.010774615982545
head 7.127246467601006 0.920217709205332 -3.1171952939340812
rclavicle -1.2514974137996038E-15 -7.084579233644252E-16
rhumerus 17.542839665745504 13.535353097220119 -51.554341555473755
rradius 68.99029698146123
rwrist 23.584216221229354
rhand -32.930063275199494 -48.95224912371946
rfingers 7.125019999999962
rthumb -6.195459929513632 -79.00988336266761
lclavicle 9.487903805001896E-16 9.384367210761835E-16
lhumerus 17.51549183234809 -13.42017704002256 49.460249512468366
lradius 66.9757176238794
lwrist -18.26961563326345
lhand -43.89154126233263 -60.36205505754072
lfingers 7.125019999999955
lthumb -16.72775850468112 -30.90699557377243
rfemur -23.05975746519558 2.500156921252502 20.28281425131267
rtibia 29.941637847540598
rfoot -28.403565848838284 -15.999836780539585
rtoes -21.450114229897245
lfemur -20.91858288550067 0.014350073235726735 -15.279088190618076
ltibia 31.80911040635766
lfoot -26.129654726958652 5.330635748789967
ltoes -19.917108907537084
177
root 0 0 0 2.8102460538434344 -4.266937280937369 2.1480337506900855
lowerback 11.782722748161278 1.1861334134389847 -0.08653506260941812
upperback -4.218314279987876 1.524559986660837 -0.8006979646465465
thorax -11.082095969581125 0.7014115764976016 -1.1113603726722365
lowerneck -6.933050691302633 1.2667424737281963 4.267820752919947
upperneck 19.269763855157688 2.6668904709729135 -8.043407986320016
head 7.18524482183306 0.9090152280405136 -3.1319481258584236
rclavicle -9.712389592368603E-16 -7.8696896952602775E-16
rhumerus 17.09106296495368 12.934964532002882 -51.209588167985416
rradius 68.62637866879734
rwrist 23.974506495486118
rhand -32.9099786951235 -48.963095512964045
rfingers 7.125019999999962
rthumb -6.173950088753779 -79.03771235524093
lclavicle 1.0019076035747184E-15 7.684680785713069E-16
lhumerus 17.29758995051663 -13.043705430009723 49.363840767346545
lradius 66.71549594884821
lwrist -18.464153579413196
lhand -43.866882767249955 -60.583969085055166
lfingers 7.125019999999955
lthumb -16.705466291215558 -31.12481102661665
rfemur -23.21419439428115 1.9569779626276538 19.386807778367828
rtibia 34.047655814761264
rfoot -24.886514115839798 -15.206403511799007
rtoes -20.951705296853795
lfemur -19.65219026397175 0.04157909877321925 -14.86508047261141
ltibia 34.40030454960494
lfoot -22.825922917731916 3.100851454647998
ltoes -20.537221569202778
178
root 0 0 0 2.5215573080787466 -4.209543714308119 2.3397559189826405
lowerback 11.862914678648238 1.1400048924654076 -0.24854482469457162
upperback -4.2089050960508745 1.442609417717344 -0.8230969829345994
thorax -11.133793500974715 0.6663899672990394 -1.0305530724633765
lowerneck -6.875719119658587 1.2825041739523402 4.290346522784709
upperneck 19.529861070921243 2.6939672007184203 -8.132472726901435
head 7.263743103086832 0.9137508819581636 -3.1644637559009956
rclavicle -5.213351251981368E-16 -1.1501576471454206E-15
rhumerus 16.41617381084466 12.002194623060278 -50.62114736943529
rradius 68.08370228752635
rwrist 24.629392821621927
rhand -32.89610709268391 -49.062575870597136
rfingers 7.125019999999962
rthumb -6.158866257668821 -79.17048642721869
lclavicle 1.0250790904221398E-15 3.5019265649128207E-16
lhumerus 17.116507685255456 -12.573417064438264 49.17944940406989
lradius 66.44612228821208
lwrist -18.758986099548757
lhand -43.87784153304219 -61.04733467997765
lfingers 7.125019999999954
lthumb -16.718008443672606 -31.588087853865343
rfemur -26.540420583953598 -0.2265396488801188 16.667728005723493
rtibia 48.515307333100864
rfoot -16.758472977365507 -13.953923769045593
rtoes -17.336031429831575
lfemur -18.184875280676724 1.2927048515384207 -14.295084564386055
ltibia 46.21239496854996
lfoot -16.86983142936928 -2.1245818204578883
ltoes -21.039722480869358
179
root 0 0 0 2.1998477570052604 -4.113431901320407 2.5480520047120336
lowerback 11.992818274325565 1.0719995532749103 -0.4391627823566312
upperback -4.174606510609389 1.3297646752522427 -0.8321256166562946
thorax -11.192278802294116 0.6174637699997699 -0.9149502015921926
lowerneck -6.879381853705591 1.3211659577982322 4.304918257398883
upperneck 19.60031285844007 2.7529773937212116 -8.192407528717245
head 7.287980592399538 0.935356220884204 -3.182456747960299
rclavicle -4.4312032964443005E-16 -1.5158635112918555E-15
rhumerus 16.077046891751465 11.505615540427494 -50.2699725995804
rradius 67.8099106828858
rwrist 25.01372926118536
rhand -32.901089926258365 -49.17209193622297
rfingers 7.125019999999963
rthumb -6.163325567632954 -79.30504288410116
lclavicle 8.514246571219434E-16 -2.6896189181725133E-17
lhumerus 17.16962849477641 -12.460675810009528 49.06422978867665
lradius 66.44398050037378
lwrist -18.886247360499528
lhand -43.92588777822213 -61.36758359017
lfingers 7.125019999999955
lthumb -16.765575095970085 -31.913166848106588
rfemur -29.9649736851375 -1.59025527469616 15.179675067767853
rtibia 57.12474696603617
rfoot -11.885601643648766 -13.173324764897188
rtoes -13.548799209410465
lfemur -17.597115065686374 2.7848270919726277 -14.324193932532914
ltibia 57.41052014498587
lfoot -12.284787042200628 -6.3173911607606215
ltoes -19.874576712018552
180
root 0 0 0 1.8593079741719682 -3.9596199784076545 2.7454755815056044
lowerback 12.147918307532613 0.9710275629124896 -0.6435717429286442
upperback -4.117610686370794 1.1726402985043682 -0.8152462515728044
thorax -11.244028880723231 0.5476501125945895 -0.7579405793702945
lowerneck -6.951123459843276 1.365576719235764 4.311500415453614
upperneck 19.608706694818004 2.820730027896505 -8.241856748988493
head 7.301814741650196 0.9611670012849313 -3.1951276519448815
rclavicle -5.471362682099083E-16 -1.8910183350389342E-15
rhumerus 15.881226954966442 11.214781847177397 -50.06084470117821
rradius 67.65370690934616
rwrist 25.241867439871875
rhand -32.90616267428387 -49.2446261861632
rfingers 7.125019999999964
rthumb -6.167771074971393 -79.38949891197782
lclavicle 5.40925694890096E-16 -3.0985916088978336E-16
lhumerus 17.289621927837672 -12.52029271818566 49.01430354692708
lradius 66.54301851893241
lwrist -18.907650563468597
lhand -43.971501349418915 -61.52838932283303
lfingers 7.125019999999956
lthumb -16.810564048034664 -32.07801235437955
rfemur -32.60003375018817 -2.3064858108231814 14.70957798401585
rtibia 61.49667677494019
rfoot -9.870950189121563 -12.8253438743378
rtoes -10.237766194391495
lfemur -18.04287132251056 4.195254573814517 -14.772324009118575
ltibia 65.63078188656888
lfoot -8.707126851107724 -8.898659392421358
ltoes -16.60364562478553
181
root 0 0 0 1.6439972767667106 -3.823047538308328 2.8785932151604467
lowerback 12.26762870288809 0.8773178134245638 -0.8018543394280647
upperback -4.0645558748771435 1.0311530674320457 -0.7861883460257492
thorax -11.273202610413698 0.48374620689651615 -0.6176457343464763
lowerneck -7.04549466650952 1.3985508658764358 4.307038817247345
upperneck 19.576487427061917 2.8717217988568127 -8.268679265617747
head 7.305328308584738 0.980980464158982 -3.1995730408567864
rclavicle -7.443916355999338E-16 -2.1335951192418635E-15
rhumerus 15.91021648768445 11.255160752861281 -50.082715925834634
rradius 67.67946223664498
rwrist 25.21563229738091
rhand -32.90876779353104 -49.249680557164005
rfingers 7.125019999999964
rthumb -6.170618576001372 -79.38698306240036
lclavicle 2.6436297116455865E-16 -4.4219732725814605E-16
lhumerus 17.422541034243743 -12.72088471298414 49.051131443131126
lradius 66.697112960405
lwrist -18.81576861270777
lhand -43.996559965997754 -61.46729772133567
lfingers 7.125019999999957
lthumb -16.83531490257891 -32.01965103447378
rfemur -34.5310623127979 -2.542129802773469 14.631359863129056
rtibia 62.399442750577364
rfoot -10.362405682263034 -13.220291358571677
rtoes -8.463227651946317
lfemur -19.47457174902142 5.069870526056816 -15.232690181671018
ltibia 69.0859769596495
lfoot -8.109920670025105 -8.951745640300064
ltoes -13.346250312726863
182
root 0 0 0 1.627637251023787 -3.7557845978546758 2.9183309830541715
lowerback 12.324286216703694 0.8231596668579602 -0.8673323968057886
upperback -4.039934078805538 0.9535903340042008 -0.7597785024785405
thorax -11.28453676996444 0.44764804665105995 -0.5436481661062811
lowerneck -7.10832298271792 1.4208609060652704 4.303822631376827
upperneck 19.495200069251815 2.9070431767229516 -8.28122334558387
head 7.28729983040299 0.9957627660131295 -3.1998554647211277
rclavicle -9.473116894111135E-16 -2.181180924548392E-15
rhumerus 16.193533592850898 11.64096068492515 -50.31186194238886
rradius 67.90789187445614
rwrist 24.95618549640649
rhand -32.91914019038576 -49.231727029746175
rfingers 7.125019999999964
rthumb -6.182128005298495 -79.34868464762945
lclavicle 1.705894519349404E-16 -4.215190739129308E-16
lhumerus 17.579094495335184 -13.033862851635375 49.1512470850484
lradius 66.89960784195156
lwrist -18.63897739174245
lhand -44.009515856172165 -61.24260147424554
lfingers 7.125019999999957
lthumb -16.84764375016057 -31.798693799045378
rfemur -35.82514067950186 -2.4322423026811704 14.654379484276282
rtibia 60.57905693428621
rfoot -12.613399294186323 -14.2213582427526
rtoes -8.457237559975267
lfemur -21.40756275246347 5.338831757370492 -15.46504360711262
ltibia 68.99778581831501
lfoot -10.260388877883393 -7.267828099501593
ltoes -11.628957334289668
183
root 0 0 0 1.8979701926534056 -3.801301574270465 2.782722523762066
lowerback 12.303282964318402 0.8406434593836204 -0.7479871914405379
upperback -4.06035739685171 0.9942917358148426 -0.7355157968153644
thorax -11.281892188313533 0.46317857842816534 -0.5965851310932808
lowerneck -7.1215880767778375 1.4360243644106168 4.31756918286164
upperneck 19.297319672549744 2.9304253160955724 -8.283882530628194
head 7.2218843749757236 1.0086234112110222 -3.1987828666936986
rclavicle -1.2485216028962477E-15 -1.9816394665038565E-15
rhumerus 16.886287099793854 12.552876032413339 -50.82407011648148
rradius 68.46527511511286
rwrist 24.37118806590017
rhand -32.9536223635849 -49.230561729857584
rfingers 7.125019999999964
rthumb -6.218285820685166 -79.31398912173633
lclavicle 2.7069478955477074E-16 -1.3534458923514986E-16
lhumerus 17.84758237608581 -13.555946803983877 49.314229299094706
lradius 67.23695211871667
lwrist -18.347329617815827
lhand -44.02743012914347 -60.85075001446076
lfingers 7.1250199999999575
lthumb -16.862051094055648 -31.413543337857586
rfemur -35.578454128335956 -1.7694561580086168 15.283766908819
rtibia 55.10731747962633
rfoot -17.883599746971974 -15.93797424054538
rtoes -10.668410370402011
lfemur -24.259627881716035 4.81456906563251 -15.554922446431249
ltibia 62.98839026762602
lfoot -16.50178724873984 -2.7317086555027847
ltoes -11.578729403041143
